HIERARCHY
ROOT Hips
{
 OFFSET 0.000000 0.000000 0.000000
 CHANNELS 6 Xposition Yposition Zposition Yrotation Xrotation Zrotation
 JOINT Chest
 {
  OFFSET 0.000000 9.585900 0.002600
  CHANNELS 3 Yrotation Xrotation Zrotation
  JOINT Chest2
  {
   OFFSET 0.000000 9.601200 -0.005300
   CHANNELS 3 Yrotation Xrotation Zrotation
   JOINT Chest3
   {
    OFFSET 0.000000 9.561800 0.000000
    CHANNELS 3 Yrotation Xrotation Zrotation
    JOINT Chest4
    {
     OFFSET 0.000000 9.552100 0.000000
     CHANNELS 3 Yrotation Xrotation Zrotation
     JOINT Neck
     {
      OFFSET 0.000000 14.453000 0.000000
      CHANNELS 3 Yrotation Xrotation Zrotation
      JOINT Head
      {
       OFFSET 0.000000 8.936500 -0.011300
       CHANNELS 3 Yrotation Xrotation Zrotation
       End Site
       {
        OFFSET 0.000000 17.073600 -0.006000
       }
      }
     }
     JOINT RightCollar
     {
      OFFSET -2.921100 9.558500 0.000000
      CHANNELS 3 Yrotation Xrotation Zrotation
      JOINT RightShoulder
      {
       OFFSET -13.519700 0.000000 0.000000
       CHANNELS 3 Yrotation Xrotation Zrotation
       JOINT RightElbow
       {
        OFFSET 0.000000 -29.696600 0.000000
        CHANNELS 3 Yrotation Xrotation Zrotation
        JOINT RightWrist
        {
         OFFSET 0.000000 -24.004700 0.000000
         CHANNELS 3 Yrotation Xrotation Zrotation
         End Site
         {
          OFFSET 0.000000 -17.728500 0.000000
         }
        }
       }
      }
     }
     JOINT LeftCollar
     {
      OFFSET 2.921100 9.558500 0.000000
      CHANNELS 3 Yrotation Xrotation Zrotation
      JOINT LeftShoulder
      {
       OFFSET 13.519700 0.000000 0.000000
       CHANNELS 3 Yrotation Xrotation Zrotation
       JOINT LeftElbow
       {
        OFFSET 0.000000 -29.696600 0.000000
        CHANNELS 3 Yrotation Xrotation Zrotation
        JOINT LeftWrist
        {
         OFFSET 0.000000 -24.004700 0.000000
         CHANNELS 3 Yrotation Xrotation Zrotation
         End Site
         {
          OFFSET 0.000000 -17.728500 0.000000
         }
        }
       }
      }
     }
    }
   }
  }
 }
 JOINT RightHip
 {
  OFFSET -7.771700 -0.012900 -0.001300
  CHANNELS 3 Yrotation Xrotation Zrotation
  JOINT RightKnee
  {
   OFFSET 0.000000 -40.869800 0.001200
   CHANNELS 3 Yrotation Xrotation Zrotation
   JOINT RightAnkle
   {
    OFFSET 0.000000 -39.717900 0.002100
    CHANNELS 3 Yrotation Xrotation Zrotation
    JOINT RightToe
    {
     OFFSET 0.000000 -4.965400 11.033500
     CHANNELS 3 Yrotation Xrotation Zrotation
     End Site
     {
      OFFSET 0.000000 -1.423100 5.872300
     }
    }
   }
  }
 }
 JOINT LeftHip
 {
  OFFSET 7.771700 -0.012900 -0.001300
  CHANNELS 3 Yrotation Xrotation Zrotation
  JOINT LeftKnee
  {
   OFFSET 0.000000 -40.869800 0.001200
   CHANNELS 3 Yrotation Xrotation Zrotation
   JOINT LeftAnkle
   {
    OFFSET 0.000000 -39.717900 0.002100
    CHANNELS 3 Yrotation Xrotation Zrotation
    JOINT LeftToe
    {
     OFFSET 0.000000 -4.965400 11.033500
     CHANNELS 3 Yrotation Xrotation Zrotation
     End Site
     {
      OFFSET 0.000000 -1.423100 5.872300
     }
    }
   }
  }
 }
}
MOTION
Frames: 12
Frame Time: 0.008333
0.000000 85.388000 0.000000 0.000000 -5.767877 0.000000 0.000000 11.653817 0.000000 0.000000 -5.885947 0.000000 0.000000 -0.000000 0.000000 0.000000 -0.000000 0.000000 0.000000 12.528835 0.000000 0.000000 0.711642 0.000000 0.000000 -0.000000 0.000000 0.000000 0.000000 -90.000000 0.000000 -2.309062 0.000000 0.000000 2.309062 0.000000 0.000000 -0.000000 0.000000 0.000000 -0.000000 90.000000 0.000000 -2.309062 0.000000 0.000000 2.309062 0.000000 0.000000 8.520406 0.000000 0.000000 1.905762 0.000000 -0.000000 -4.658285 0.000000 0.000000 -0.000000 0.000000 0.000000 8.520406 0.000000 0.000000 1.905762 0.000000 -0.000000 -4.658285 0.000000 0.000000 -0.000000 0.000000
-72.510843 44.510596 19.112926 178.523260 -39.865594 -0.370637 1.896145 29.212104 1.957492 0.245898 5.536168 0.313671 0.398801 8.654688 0.502251 1.315217 23.480558 1.571198 3.266031 19.966212 -8.594113 5.582211 -4.010632 -10.256805 14.302857 0.759760 -2.459826 -16.228615 -11.020979 -3.559840 -115.078959 -63.518474 124.730347 -11.730230 0.641010 -21.616662 -18.451403 1.136506 -5.188512 16.595111 -15.752869 -1.147656 144.010398 -54.279470 -167.458559 18.701641 -3.897184 13.872685 -0.641050 -52.082207 6.312306 -140.184913 65.454819 -138.984853 -6.500671 -26.598014 6.312550 0.055677 -0.218020 0.049184 2.846495 -40.291676 -4.824193 174.280332 62.997992 174.229307 -0.257250 -36.677858 2.976591 0.019557 0.148023 0.017019
-72.520093 44.490939 19.105248 178.466349 -39.820916 -0.289781 1.915842 29.185472 1.907134 0.244365 5.525503 0.312878 0.397396 8.651305 0.502133 1.303522 23.468576 1.569595 3.302991 19.992893 -8.602093 5.643059 -3.962415 -10.285150 14.276582 0.736106 -2.450474 -16.218625 -11.035778 -3.625322 -115.650871 -63.750431 125.334797 -11.533558 0.871091 -21.782828 -18.454766 1.130966 -5.195475 16.643855 -15.730761 -1.116474 144.103697 -54.233779 -167.545968 18.682830 -3.887935 14.035200 -0.548269 -52.120722 6.248967 -140.250231 65.444411 -139.047089 -6.558151 -26.615768 6.340726 0.098234 -0.246330 0.044026 2.945342 -40.338226 -4.905656 174.272228 62.973600 174.230863 -0.270600 -36.717714 2.988986 0.033873 0.173040 0.015194
-72.530467 44.470803 19.093828 178.444790 -39.789143 -0.226877 1.894400 29.183795 1.843602 0.250326 5.504478 0.313679 0.394855 8.642721 0.501468 1.291149 23.452996 1.569515 3.342823 20.022271 -8.610056 5.705326 -3.915984 -10.311930 14.266658 0.719434 -2.452196 -16.204217 -11.019630 -3.655012 -116.364221 -64.003481 126.070696 -11.341148 1.082048 -21.934007 -18.477850 1.090802 -5.206811 16.703893 -15.678727 -1.072825 144.290965 -54.216596 -167.665847 18.654468 -3.878191 14.157022 -0.515704 -52.150264 6.209020 -140.274813 65.411500 -139.100635 -6.593245 -26.656383 6.380955 0.125337 -0.262106 0.032747 3.017394 -40.369683 -4.991576 174.250573 62.954295 174.215547 -0.277270 -36.733435 2.994595 0.040039 0.175149 0.014660
-72.543303 44.451275 19.079192 178.412858 -39.771228 -0.144856 1.874183 29.183096 1.766817 0.251079 5.497284 0.312947 0.383043 8.627726 0.501612 1.294205 23.443512 1.569623 3.378150 20.049564 -8.618552 5.747341 -3.880926 -10.331664 14.255770 0.700655 -2.457904 -16.192879 -10.999604 -3.682626 -117.113298 -64.252276 126.846899 -11.151649 1.269371 -22.072459 -18.484802 1.076556 -5.215753 16.763375 -15.655112 -1.046502 144.498193 -54.220947 -167.794226 18.586543 -3.867416 14.266812 -0.432870 -52.163546 6.129853 -140.278569 65.368078 -139.125358 -6.632024 -26.639335 6.423252 0.174265 -0.321733 0.032303 3.105844 -40.384308 -5.091919 174.246775 62.928676 174.214079 -0.289198 -36.773989 3.002028 0.052891 0.197187 0.020903
-72.549006 44.430901 19.065347 178.382260 -39.743501 -0.109588 1.874919 29.171691 1.741529 0.252649 5.488104 0.311926 0.378689 8.616091 0.502468 1.290148 23.430405 1.569552 3.412531 20.077529 -8.628340 5.788517 -3.845097 -10.352569 14.254800 0.697653 -2.463153 -16.195926 -11.009768 -3.730051 -117.817229 -64.469352 127.581458 -10.958698 1.442670 -22.200922 -18.491228 1.066413 -5.224483 16.791825 -15.631914 -1.044377 144.815437 -54.246729 -167.987803 18.501829 -3.841766 14.361676 -0.405656 -52.185749 6.125365 -140.225225 65.330271 -139.096088 -6.624872 -26.646579 6.455038 0.171167 -0.375211 0.032816 3.152866 -40.407762 -5.127215 174.246284 62.898115 174.215435 -0.285336 -36.813694 3.005186 0.053441 0.214898 0.021921
-72.554839 44.410817 19.052445 178.349130 -39.707584 -0.075792 1.877418 29.153744 1.719979 0.237626 5.486519 0.312152 0.386879 8.594630 0.500714 1.292455 23.421476 1.566016 3.444211 20.100527 -8.635115 5.828881 -3.810213 -10.374472 14.262436 0.706533 -2.467630 -16.205296 -11.059302 -3.817729 -118.438719 -64.633871 128.224644 -10.763911 1.610083 -22.321491 -18.497143 1.059047 -5.229512 16.820851 -15.615158 -1.034068 145.131945 -54.265728 -168.170476 18.413677 -3.799068 14.437225 -0.375580 -52.214526 6.123005 -140.136769 65.298636 -139.033764 -6.603128 -26.637779 6.476633 0.150284 -0.467120 0.045659 3.198164 -40.437553 -5.167184 174.235848 62.875822 174.210132 -0.268166 -36.851815 3.001052 0.050740 0.228022 0.017391
-72.560563 44.391256 19.041540 178.310716 -39.658471 -0.043869 1.887743 29.124368 1.704455 0.236485 5.477402 0.312188 0.392347 8.582730 0.499493 1.282065 23.406000 1.569598 3.475796 20.125099 -8.645805 5.838383 -3.794614 -10.383578 14.256886 0.692618 -2.474562 -16.182046 -11.050741 -3.862150 -119.189890 -64.810613 128.998028 -10.576134 1.771433 -22.429671 -18.490688 1.063478 -5.243941 16.862267 -15.605201 -1.008499 145.412597 -54.269668 -168.328969 18.338682 -3.748959 14.483055 -0.342736 -52.256854 6.124234 -140.051338 65.280123 -138.968706 -6.600057 -26.623564 6.496833 0.161300 -0.499847 0.050027 3.236345 -40.486194 -5.188965 174.262881 62.852113 174.231796 -0.257994 -36.878403 3.007114 0.054289 0.236627 0.016574
-72.565634 44.373867 19.031787 178.293691 -39.604649 -0.034096 1.884552 29.092452 1.695616 0.235646 5.468024 0.312092 0.401347 8.570451 0.501197 1.270327 23.389461 1.571924 3.501014 20.146330 -8.656653 5.853062 -3.777642 -10.393323 14.219292 0.646587 -2.479281 -16.122862 -10.998265 -3.895120 -119.990878 -64.981041 129.828177 -10.401107 1.931017 -22.522486 -18.484036 1.069144 -5.256710 16.886952 -15.595710 -1.004989 145.738502 -54.291854 -168.523658 18.292934 -3.708212 14.496302 -0.333329 -52.309910 6.133023 -139.937541 65.259357 -138.885184 -6.538953 -26.546525 6.477018 0.137975 -0.569516 0.073852 3.251518 -40.543428 -5.196700 174.292159 62.829972 174.254934 -0.256954 -36.896242 3.019659 0.060928 0.241528 0.015273
-72.568827 44.356995 19.025974 178.273449 -39.525550 -0.038130 1.893972 29.032061 1.703962 0.235202 5.460627 0.311877 0.397687 8.554215 0.500717 1.265640 23.379691 1.570912 3.521266 20.162759 -8.665197 5.904973 -3.748404 -10.414820 14.217077 0.642458 -2.484910 -16.101115 -11.009692 -3.945683 -120.697756 -65.113144 130.567238 -10.240064 2.098019 -22.611499 -18.487760 1.044640 -5.253248 16.976303 -15.543395 -0.999335 145.981466 -54.290822 -168.692058 18.271751 -3.678782 14.499895 -0.346731 -52.386113 6.183297 -139.769486 65.234534 -138.757070 -6.472304 -26.461881 6.457711 0.110367 -0.616403 0.095508 3.253315 -40.626229 -5.188149 174.296069 62.811895 174.255032 -0.247920 -36.923296 3.019807 0.053083 0.262759 0.015970
-72.569399 44.347590 19.016127 178.265323 -39.483146 -0.067536 1.913617 28.995884 1.739064 0.235074 5.458058 0.311794 0.382893 8.553081 0.500230 1.253008 23.359968 1.568064 3.564271 20.181989 -8.672588 5.997319 -3.728250 -10.444785 14.237774 0.655538 -2.492401 -16.098969 -11.042894 -3.987290 -121.371993 -65.229776 131.290800 -10.092612 2.280889 -22.710233 -18.480802 1.027632 -5.258359 17.073992 -15.496521 -0.995919 146.161327 -54.272192 -168.835082 18.256469 -3.650800 14.526841 -0.339069 -52.419169 6.227361 -139.658344 65.224019 -138.642200 -6.447414 -26.379504 6.436965 0.106792 -0.644100 0.117249 3.222718 -40.665281 -5.156125 174.326663 62.797488 174.279516 -0.210104 -36.952299 3.006502 0.044625 0.273824 0.014688
-72.568827 44.343284 19.005060 178.287344 -39.454809 -0.123546 1.898189 28.995263 1.773625 0.233921 5.447364 0.310745 0.381162 8.537570 0.498569 1.244472 23.346558 1.566328 3.603359 20.187419 -8.679463 6.010502 -3.720849 -10.449635 14.232506 0.636554 -2.494583 -16.077694 -11.077076 -4.063501 -121.955555 -65.316486 131.940239 -9.962483 2.479573 -22.821900 -18.473081 1.008635 -5.264901 17.161232 -15.462190 -0.994413 146.272526 -54.241246 -168.931662 18.235888 -3.619441 14.598276 -0.364172 -52.443251 6.269262 -139.618698 65.223241 -138.592622 -6.404780 -26.339008 6.415188 0.078737 -0.624646 0.118460 3.165264 -40.685800 -5.115644 174.357451 62.790101 174.306647 -0.160689 -36.952523 2.993004 0.030794 0.256936 0.007722
